<svg width="338" height="188" viewBox="0 0 338 188" fill="none" xmlns="http://www.w3.org/2000/svg">
<g opacity="0.2">
<path d="M5.90612 5.09904C-17.4721 -79.6161 69.1295 -88.2391 131.627 -62.6595C168.092 -49.5043 192.038 -90.4161 237.211 -74.0887C282.383 -57.7613 228.231 -6.33002 297.35 20.0659C366.469 46.4619 332.726 164.563 272.315 165.924C211.903 167.284 228.503 187.149 168.092 232.594C107.68 278.039 5.90626 214.906 31.2137 148.236C56.5211 81.5656 31.2134 96.8046 5.90612 5.09904Z" stroke="url(#paint0_linear_135_4298)" stroke-width="3"/>
<path d="M135.926 71.0284C133.228 62.9597 145.862 49.943 156.022 55.4981C165.325 60.5851 174.798 57.1543 181.057 59.4221C197.534 65.3925 191.473 68.5528 198.839 75.6436C207.802 84.2722 212.079 106.867 191.473 106.867C174.526 106.867 179.597 115.098 166.907 118.745C154.216 122.392 139.825 116.184 139.825 99.8392C139.825 93.7013 140.418 84.4669 135.926 71.0284Z" stroke="url(#paint1_linear_135_4298)" stroke-width="3"/>
<path d="M17.7244 10.6809C-3.77371 -67.0663 76.1035 -76.0888 133.843 -52.3296C167.838 -39.9078 190.469 -77.4123 232.104 -62.363C274.668 -46.9772 224.888 0.0658264 288.393 24.7067C352.043 49.4875 321.756 158.906 264.964 160.143C208.504 161.38 224.055 180.188 167.982 221.832C111.909 263.477 18.079 205.519 41.0857 143.424C64.0925 82.2572 41.1394 95.2712 17.7244 10.6809Z" stroke="url(#paint2_linear_135_4298)" stroke-width="3"/>
<path d="M29.5427 16.263C9.9247 -54.5164 83.0777 -63.9382 136.059 -41.9994C167.585 -30.3112 188.901 -64.4082 226.998 -50.6371C266.953 -36.1928 221.544 6.4619 279.436 29.3478C337.617 52.5133 310.787 153.25 257.613 154.363C205.104 155.476 219.608 173.226 167.873 211.071C116.138 248.916 30.2518 196.133 50.9579 138.613C71.6639 82.949 51.0655 93.7382 29.5427 16.263Z" stroke="url(#paint3_linear_135_4298)" stroke-width="3"/>
<path d="M41.3612 21.846C23.6232 -41.9656 90.0518 -51.7869 138.275 -31.6685C167.332 -20.7137 187.332 -51.4034 221.891 -38.9104C259.238 -25.4077 218.201 12.8588 270.479 33.9897C323.192 55.54 299.817 147.594 250.262 148.583C201.705 149.573 215.16 166.265 167.764 200.31C120.367 234.356 42.4246 186.748 60.83 133.803C79.2354 83.6416 60.9917 92.2059 41.3612 21.846Z" stroke="url(#paint4_linear_135_4298)" stroke-width="3"/>
<path d="M53.1798 27.4288C37.3219 -29.4149 97.0263 -39.6356 140.492 -21.3376C167.079 -11.1163 185.763 -38.3987 216.785 -27.1838C251.523 -14.6226 214.858 19.2556 261.522 38.6315C308.766 58.5665 288.848 141.938 242.912 142.804C198.305 143.67 210.713 159.304 167.655 189.55C124.596 219.795 54.5977 177.362 70.7025 128.992C86.8072 84.3341 70.9181 90.6736 53.1798 27.4288Z" stroke="url(#paint5_linear_135_4298)" stroke-width="3"/>
<path d="M64.9984 33.2945C51.0206 -16.5813 104.001 -27.2015 142.708 -10.7239C166.826 -1.23607 184.194 -25.1111 211.679 -15.1744C243.808 -3.55472 211.515 25.9352 252.565 43.5561C294.34 61.8759 277.879 136.565 235.561 137.307C194.906 138.049 206.265 152.626 167.545 179.072C128.826 205.518 66.7708 168.26 80.5749 124.465C94.3789 85.3094 80.8445 89.4241 64.9984 33.2945Z" stroke="url(#paint6_linear_135_4298)" stroke-width="3"/>
<path d="M76.8173 39.4952C64.7195 -3.4128 110.975 -14.4324 144.925 0.224777C166.574 8.97914 182.626 -11.4885 206.573 -2.82995C236.093 7.84817 208.173 32.9498 243.608 48.8157C279.915 65.5203 266.91 131.527 228.211 132.145C191.507 132.764 201.818 146.283 167.437 168.929C133.055 191.575 78.9441 159.492 90.4475 120.272C101.951 86.6198 90.7711 88.5096 76.8173 39.4952Z" stroke="url(#paint7_linear_135_4298)" stroke-width="3"/>
<path d="M88.6364 45.714C78.4187 9.77394 117.95 -1.64507 147.142 11.1917C166.321 19.2126 181.058 2.1523 201.467 9.53271C228.379 19.2693 204.83 39.9827 234.652 54.0935C265.49 69.1829 255.941 126.507 220.861 127.002C188.108 127.497 197.371 139.958 167.328 158.804C137.285 177.651 91.1177 150.743 100.32 116.098C109.523 87.9483 100.698 87.6133 88.6364 45.714Z" stroke="url(#paint8_linear_135_4298)" stroke-width="3"/>
<path d="M100.456 51.9597C92.1184 22.9875 124.926 11.169 149.359 22.1854C166.07 29.4728 179.49 15.8199 196.362 21.9221C220.665 30.7172 201.488 47.0423 225.696 59.3981C251.065 72.8723 244.973 121.514 213.511 121.885C184.71 122.256 192.925 133.66 167.22 148.707C141.515 163.753 103.292 142.02 110.194 111.95C117.096 89.3037 110.625 86.7438 100.456 51.9597Z" stroke="url(#paint9_linear_135_4298)" stroke-width="3"/>
<path d="M112.276 58.2453C105.819 36.2409 131.902 24.023 151.577 33.219C165.819 39.7729 177.924 29.5274 191.258 34.3515C212.952 42.205 198.147 54.1418 216.741 64.7426C236.641 76.6016 234.006 116.561 206.162 116.808C181.313 117.056 188.48 127.402 167.113 138.649C145.746 149.895 115.467 133.337 120.068 107.843C124.669 90.6989 120.554 85.9142 112.276 58.2453Z" stroke="url(#paint10_linear_135_4298)" stroke-width="3"/>
<path d="M124.099 64.5903C119.521 49.5538 138.88 36.9365 153.797 44.312C165.569 50.1325 176.358 43.2943 186.155 46.8403C205.241 53.7522 194.808 61.3008 207.788 70.1466C222.219 80.3904 223.04 111.667 198.815 111.791C177.917 111.915 184.036 121.203 167.007 128.65C149.979 136.097 127.643 124.714 129.944 103.794C132.245 92.1536 130.483 85.144 124.099 64.5903Z" stroke="url(#paint11_linear_135_4298)" stroke-width="3"/>
</g>
<defs>
<linearGradient id="paint0_linear_135_4298" x1="168.903" y1="-78" x2="168.903" y2="248.007" gradientUnits="userSpaceOnUse">
<stop stop-color="#2C6E9A"/>
<stop offset="1" stop-color="#0F3651" stop-opacity="0"/>
</linearGradient>
<linearGradient id="paint1_linear_135_4298" x1="170.916" y1="54.1593" x2="170.916" y2="119.755" gradientUnits="userSpaceOnUse">
<stop stop-color="#2C6E9A"/>
<stop offset="1" stop-color="#0F3651" stop-opacity="0"/>
</linearGradient>
<linearGradient id="paint2_linear_135_4298" x1="169.073" y1="-65.9857" x2="169.073" y2="235.929" gradientUnits="userSpaceOnUse">
<stop stop-color="#2C6E9A"/>
<stop offset="1" stop-color="#0F3651" stop-opacity="0"/>
</linearGradient>
<linearGradient id="paint3_linear_135_4298" x1="169.244" y1="-53.9713" x2="169.244" y2="223.852" gradientUnits="userSpaceOnUse">
<stop stop-color="#2C6E9A"/>
<stop offset="1" stop-color="#0F3651" stop-opacity="0"/>
</linearGradient>
<linearGradient id="paint4_linear_135_4298" x1="169.416" y1="-41.9565" x2="169.416" y2="211.775" gradientUnits="userSpaceOnUse">
<stop stop-color="#2C6E9A"/>
<stop offset="1" stop-color="#0F3651" stop-opacity="0"/>
</linearGradient>
<linearGradient id="paint5_linear_135_4298" x1="169.588" y1="-29.9421" x2="169.588" y2="199.699" gradientUnits="userSpaceOnUse">
<stop stop-color="#2C6E9A"/>
<stop offset="1" stop-color="#0F3651" stop-opacity="0"/>
</linearGradient>
<linearGradient id="paint6_linear_135_4298" x1="169.762" y1="-17.9278" x2="169.762" y2="187.906" gradientUnits="userSpaceOnUse">
<stop stop-color="#2C6E9A"/>
<stop offset="1" stop-color="#0F3651" stop-opacity="0"/>
</linearGradient>
<linearGradient id="paint7_linear_135_4298" x1="169.937" y1="-5.9129" x2="169.937" y2="176.448" gradientUnits="userSpaceOnUse">
<stop stop-color="#2C6E9A"/>
<stop offset="1" stop-color="#0F3651" stop-opacity="0"/>
</linearGradient>
<linearGradient id="paint8_linear_135_4298" x1="170.115" y1="6.10144" x2="170.115" y2="165.01" gradientUnits="userSpaceOnUse">
<stop stop-color="#2C6E9A"/>
<stop offset="1" stop-color="#0F3651" stop-opacity="0"/>
</linearGradient>
<linearGradient id="paint9_linear_135_4298" x1="170.298" y1="18.1158" x2="170.298" y2="153.601" gradientUnits="userSpaceOnUse">
<stop stop-color="#2C6E9A"/>
<stop offset="1" stop-color="#0F3651" stop-opacity="0"/>
</linearGradient>
<linearGradient id="paint10_linear_135_4298" x1="170.486" y1="30.1306" x2="170.486" y2="142.235" gradientUnits="userSpaceOnUse">
<stop stop-color="#2C6E9A"/>
<stop offset="1" stop-color="#0F3651" stop-opacity="0"/>
</linearGradient>
<linearGradient id="paint11_linear_135_4298" x1="170.688" y1="42.145" x2="170.688" y2="130.937" gradientUnits="userSpaceOnUse">
<stop stop-color="#2C6E9A"/>
<stop offset="1" stop-color="#0F3651" stop-opacity="0"/>
</linearGradient>
</defs>
</svg>
