<svg width="28" height="28" viewBox="0 0 28 28" fill="none" xmlns="http://www.w3.org/2000/svg">
<path d="M5.3 19.7895V21.8947H23.7V19.7895H5.3ZM5.3 8.21053H7.83C7.73417 8.05263 7.67188 7.88596 7.64313 7.71053C7.61438 7.53509 7.6 7.35088 7.6 7.15789C7.6 6.2807 7.93542 5.53509 8.60625 4.92105C9.27708 4.30702 10.0917 4 11.05 4C11.625 4 12.1569 4.13596 12.6456 4.40789C13.1344 4.67982 13.5608 5.01754 13.925 5.42105L14.5 6.10526L15.075 5.42105C15.42 5 15.8417 4.65789 16.34 4.39474C16.8383 4.13158 17.375 4 17.95 4C18.9083 4 19.7229 4.30702 20.3938 4.92105C21.0646 5.53509 21.4 6.2807 21.4 7.15789C21.4 7.35088 21.3856 7.53509 21.3569 7.71053C21.3281 7.88596 21.2658 8.05263 21.17 8.21053H23.7C24.3325 8.21053 24.874 8.41667 25.3244 8.82895C25.7748 9.24123 26 9.73684 26 10.3158V21.8947C26 22.4737 25.7748 22.9693 25.3244 23.3816C24.874 23.7939 24.3325 24 23.7 24H5.3C4.6675 24 4.12604 23.7939 3.67563 23.3816C3.22521 22.9693 3 22.4737 3 21.8947V10.3158C3 9.73684 3.22521 9.24123 3.67563 8.82895C4.12604 8.41667 4.6675 8.21053 5.3 8.21053ZM5.3 16.6316H23.7V10.3158H17.835L20.25 13.3158L18.41 14.5263L14.5 9.68421L10.59 14.5263L8.75 13.3158L11.1075 10.3158H5.3V16.6316ZM11.05 8.21053C11.3758 8.21053 11.649 8.10965 11.8694 7.90789C12.0898 7.70614 12.2 7.45614 12.2 7.15789C12.2 6.85965 12.0898 6.60965 11.8694 6.40789C11.649 6.20614 11.3758 6.10526 11.05 6.10526C10.7242 6.10526 10.451 6.20614 10.2306 6.40789C10.0102 6.60965 9.9 6.85965 9.9 7.15789C9.9 7.45614 10.0102 7.70614 10.2306 7.90789C10.451 8.10965 10.7242 8.21053 11.05 8.21053ZM17.95 8.21053C18.2758 8.21053 18.549 8.10965 18.7694 7.90789C18.9898 7.70614 19.1 7.45614 19.1 7.15789C19.1 6.85965 18.9898 6.60965 18.7694 6.40789C18.549 6.20614 18.2758 6.10526 17.95 6.10526C17.6242 6.10526 17.351 6.20614 17.1306 6.40789C16.9102 6.60965 16.8 6.85965 16.8 7.15789C16.8 7.45614 16.9102 7.70614 17.1306 7.90789C17.351 8.10965 17.6242 8.21053 17.95 8.21053Z" fill="white"/>
</svg>
