<svg width="20" height="20" viewBox="0 0 20 20" fill="none" xmlns="http://www.w3.org/2000/svg">
<path d="M9.95 16C10.3 16 10.596 15.879 10.838 15.637C11.08 15.395 11.2007 15.0993 11.2 14.75C11.2 14.4 11.0793 14.104 10.838 13.862C10.5967 13.62 10.3007 13.4993 9.95 13.5C9.6 13.5 9.30433 13.621 9.063 13.863C8.82167 14.105 8.70067 14.4007 8.7 14.75C8.7 15.1 8.821 15.396 9.063 15.638C9.305 15.88 9.60067 16.0007 9.95 16ZM9.05 12.15H10.9C10.9 11.6 10.9627 11.1667 11.088 10.85C11.2133 10.5333 11.5673 10.1 12.15 9.55C12.5833 9.11667 12.925 8.704 13.175 8.312C13.425 7.92 13.55 7.44933 13.55 6.9C13.55 5.96667 13.2083 5.25 12.525 4.75C11.8417 4.25 11.0333 4 10.1 4C9.15 4 8.379 4.25 7.787 4.75C7.195 5.25 6.78267 5.85 6.55 6.55L8.2 7.2C8.28333 6.9 8.471 6.575 8.763 6.225C9.055 5.875 9.50067 5.7 10.1 5.7C10.6333 5.7 11.0333 5.846 11.3 6.138C11.5667 6.43 11.7 6.75067 11.7 7.1C11.7 7.43333 11.6 7.746 11.4 8.038C11.2 8.33 10.95 8.60067 10.65 8.85C9.91667 9.5 9.46667 9.99167 9.3 10.325C9.13333 10.6583 9.05 11.2667 9.05 12.15ZM10 20C8.61667 20 7.31667 19.7373 6.1 19.212C4.88333 18.6867 3.825 17.9743 2.925 17.075C2.025 16.175 1.31267 15.1167 0.788 13.9C0.263333 12.6833 0.000666667 11.3833 0 10C0 8.61667 0.262667 7.31667 0.788 6.1C1.31333 4.88333 2.02567 3.825 2.925 2.925C3.825 2.025 4.88333 1.31267 6.1 0.788C7.31667 0.263333 8.61667 0.000666667 10 0C11.3833 0 12.6833 0.262667 13.9 0.788C15.1167 1.31333 16.175 2.02567 17.075 2.925C17.975 3.825 18.6877 4.88333 19.213 6.1C19.7383 7.31667 20.0007 8.61667 20 10C20 11.3833 19.7373 12.6833 19.212 13.9C18.6867 15.1167 17.9743 16.175 17.075 17.075C16.175 17.975 15.1167 18.6877 13.9 19.213C12.6833 19.7383 11.3833 20.0007 10 20ZM10 18C12.2333 18 14.125 17.225 15.675 15.675C17.225 14.125 18 12.2333 18 10C18 7.76667 17.225 5.875 15.675 4.325C14.125 2.775 12.2333 2 10 2C7.76667 2 5.875 2.775 4.325 4.325C2.775 5.875 2 7.76667 2 10C2 12.2333 2.775 14.125 4.325 15.675C5.875 17.225 7.76667 18 10 18Z" fill="black"/>
</svg>
