<svg width="24" height="24" viewBox="0 0 24 24" fill="none" xmlns="http://www.w3.org/2000/svg">
<rect width="24" height="24" rx="12" fill="white" fill-opacity="0.2"/>
<path d="M10.3536 5.64645C10.1583 5.45118 9.84171 5.45118 9.64645 5.64645L6.46447 8.82843C6.2692 9.02369 6.2692 9.34027 6.46447 9.53553C6.65973 9.7308 6.97631 9.7308 7.17157 9.53553L10 6.70711L12.8284 9.53553C13.0237 9.7308 13.3403 9.7308 13.5355 9.53553C13.7308 9.34027 13.7308 9.02369 13.5355 8.82843L10.3536 5.64645ZM10.5 12L10.5 6L9.5 6L9.5 12L10.5 12Z" fill="white"/>
<path d="M13.6464 18.3536C13.8417 18.5488 14.1583 18.5488 14.3536 18.3536L17.5355 15.1716C17.7308 14.9763 17.7308 14.6597 17.5355 14.4645C17.3403 14.2692 17.0237 14.2692 16.8284 14.4645L14 17.2929L11.1716 14.4645C10.9763 14.2692 10.6597 14.2692 10.4645 14.4645C10.2692 14.6597 10.2692 14.9763 10.4645 15.1716L13.6464 18.3536ZM13.5 11L13.5 18L14.5 18L14.5 11L13.5 11Z" fill="white"/>
</svg>
